<svg width="17" height="16" viewBox="0 0 17 16" fill="none" xmlns="http://www.w3.org/2000/svg">
<path d="M0.714225 7.80925L4.50766 9.22375L5.98644 13.9816C6.05073 14.3031 6.43651 14.3674 6.69369 14.1745L8.81542 12.4385C9.00831 12.2456 9.32979 12.2456 9.58697 12.4385L13.3804 15.2032C13.6376 15.3961 14.0233 15.2675 14.0876 14.946L16.9166 1.44403C16.9809 1.12255 16.6594 0.801077 16.338 0.929667L0.714225 6.97342C0.328453 7.10201 0.328453 7.68066 0.714225 7.80925ZM5.79356 8.5165L13.2518 3.95154C13.3804 3.88724 13.509 4.08013 13.3804 4.14443L7.27234 9.8667C7.07946 10.0596 6.88657 10.3168 6.88657 10.6382L6.69369 12.1813C6.69369 12.3742 6.37221 12.4385 6.30791 12.1813L5.53636 9.35234C5.34348 9.03086 5.47208 8.64509 5.79356 8.5165Z" fill="#0F2A6A"/>
</svg>
