<svg width="18" height="11" viewBox="0 0 18 11" fill="none" xmlns="http://www.w3.org/2000/svg">
<path d="M17.5901 9.72233C17.5901 9.65384 17.5216 9.65384 17.5216 9.58534C17.2476 9.03739 16.6312 8.35246 15.8093 7.59903C15.3983 7.25656 15.1928 6.98258 15.0558 6.84559C14.8504 6.57161 14.8504 6.36614 14.9189 6.09216C14.9874 5.88668 15.2613 5.5442 15.7408 4.92776C16.0147 4.58529 16.1517 4.37981 16.3572 4.17433C17.3846 2.80445 17.8641 1.91402 17.7271 1.50306L17.6586 1.43457C17.5901 1.36608 17.5216 1.29759 17.3846 1.29759C17.2476 1.22909 17.0422 1.22909 16.8367 1.29759H14.2339C14.1654 1.29759 14.1654 1.29759 14.0284 1.29759C13.9599 1.29759 13.8914 1.29759 13.8914 1.29759H13.823H13.7545L13.686 1.36607C13.6175 1.43457 13.6175 1.43457 13.6175 1.50306C13.3435 2.25649 13.001 2.87294 12.6585 3.55788C12.4531 3.90035 12.2476 4.24282 12.0421 4.5168C11.8366 4.79077 11.6996 4.99625 11.5626 5.13324C11.4257 5.27023 11.2887 5.33872 11.2202 5.47571C11.1517 5.5442 11.0147 5.6127 11.0147 5.54421C10.9462 5.54421 10.8777 5.5442 10.8777 5.47571C10.8092 5.40722 10.7407 5.33872 10.6722 5.27023C10.6037 5.20173 10.6037 5.06474 10.5352 4.92776C10.5352 4.79077 10.5352 4.65378 10.5352 4.58529C10.5352 4.51679 10.5352 4.31132 10.5352 4.17433C10.5352 3.96885 10.5352 3.83186 10.5352 3.76336C10.5352 3.55788 10.5352 3.28391 10.5352 3.00994C10.5352 2.73596 10.5352 2.53047 10.5352 2.39348C10.5352 2.2565 10.5352 2.05102 10.5352 1.91403C10.5352 1.70855 10.5352 1.57155 10.5352 1.50306C10.5352 1.43457 10.4668 1.29758 10.4668 1.22909C10.3983 1.1606 10.3298 1.0921 10.2613 1.02361C10.1928 0.955111 10.0558 0.955113 9.98729 0.88662C9.64482 0.818126 9.23386 0.749634 8.75441 0.749634C7.6585 0.749634 6.90507 0.81813 6.63109 0.955118C6.4941 1.02361 6.35711 1.0921 6.28862 1.22909C6.15163 1.36608 6.15163 1.43457 6.22012 1.43457C6.56259 1.50307 6.83657 1.64005 6.97356 1.84553L7.04206 1.98253C7.11055 2.05102 7.11054 2.188 7.17903 2.39348C7.24753 2.59897 7.24753 2.80445 7.24753 3.07842C7.24753 3.48939 7.24753 3.90035 7.24753 4.17433C7.24753 4.5168 7.17903 4.72227 7.17903 4.92776C7.17903 5.13324 7.11055 5.27023 7.04206 5.33872C6.97356 5.47571 6.97356 5.54421 6.90506 5.54421C6.90506 5.54421 6.90506 5.6127 6.83656 5.6127C6.76807 5.6127 6.69958 5.68119 6.56259 5.68119C6.4941 5.68119 6.35711 5.6127 6.28862 5.54421C6.15163 5.47571 6.01464 5.33873 5.94615 5.20174C5.80916 5.06475 5.67217 4.85926 5.53518 4.58529C5.3982 4.31131 5.19271 4.03734 5.05572 3.62638L4.91874 3.3524C4.85025 3.21542 4.71326 2.94144 4.57627 2.59897C4.43928 2.2565 4.30229 1.98253 4.1653 1.64006C4.09681 1.50307 4.02833 1.43457 3.95983 1.36607H3.89133C3.89133 1.36607 3.82283 1.29759 3.75434 1.29759C3.68584 1.29759 3.61736 1.22909 3.54886 1.22909H1.08308C0.809103 1.22909 0.672118 1.29758 0.603624 1.36607L0.535126 1.43457C0.535126 1.43457 0.535126 1.50306 0.535126 1.57156C0.535126 1.64005 0.53513 1.70854 0.603624 1.84553C0.946093 2.66746 1.35705 3.48939 1.76802 4.31132C2.17898 5.06475 2.58995 5.74969 2.86392 6.22915C3.20639 6.7086 3.48037 7.18806 3.82284 7.59903C4.1653 8.00999 4.37078 8.28396 4.43928 8.42095C4.57626 8.55794 4.64475 8.62643 4.71325 8.69492L4.91874 8.90041C5.05573 9.03739 5.26121 9.24288 5.53518 9.44836C5.80916 9.65384 6.15162 9.85932 6.49409 10.0648C6.83656 10.2703 7.24753 10.4073 7.6585 10.5443C8.13796 10.6813 8.54892 10.7497 8.95988 10.6813H9.98729C10.1928 10.6813 10.3298 10.6128 10.4668 10.4758L10.5352 10.4073C10.5352 10.3388 10.6037 10.3388 10.6037 10.2703C10.6037 10.2018 10.6037 10.1333 10.6037 9.99631C10.6037 9.72234 10.6037 9.51685 10.6722 9.31137C10.7407 9.10589 10.7407 8.96891 10.8092 8.83192C10.8777 8.69493 10.9462 8.62643 11.0147 8.55794C11.0832 8.48944 11.1517 8.42095 11.1517 8.42095H11.2202C11.3572 8.35246 11.5626 8.42095 11.6996 8.55794C11.9051 8.69492 12.1106 8.90041 12.2476 9.10589C12.3846 9.31137 12.5901 9.51685 12.864 9.79083C13.138 10.0648 13.3435 10.2703 13.4805 10.3388L13.686 10.4758C13.8229 10.5443 13.9599 10.6128 14.1654 10.6813C14.3709 10.7497 14.5079 10.7497 14.6449 10.7497L16.9737 10.6813C17.1792 10.6813 17.3846 10.6128 17.5216 10.5443C17.6586 10.4758 17.7271 10.4073 17.7271 10.2703C17.7271 10.2018 17.7271 10.0648 17.7271 9.99631C17.5901 9.85932 17.5901 9.79082 17.5901 9.72233Z" fill="#0F2A6A"/>
</svg>
